<svg version="1.1" id="Layer_1" xmlns="http://www.w3.org/2000/svg" xmlns:xlink="http://www.w3.org/1999/xlink" x="0px" y="0px"
	 width="100%" viewBox="0 0 500 500" enable-background="new 0 0 500 500" xml:space="preserve">
<path fill="#010100" opacity="1.000000" stroke="none" 
	d="
M234.000000,501.000000 
	C156.000015,501.000000 78.500038,501.000000 1.000041,501.000000 
	C1.000028,334.333405 1.000028,167.666779 1.000014,1.000131 
	C167.666565,1.000087 334.333130,1.000087 500.999756,1.000044 
	C500.999847,167.666519 500.999847,334.333038 500.999939,500.999786 
	C412.166656,501.000000 323.333344,501.000000 234.000000,501.000000 
M198.407089,293.249969 
	C198.407089,293.249969 198.606323,292.942963 199.276489,292.510742 
	C199.240784,290.704926 199.818832,287.712341 199.053833,287.316711 
	C196.795715,286.148895 194.006195,286.008545 191.594482,285.501862 
	C191.594482,290.748810 191.594482,294.992584 191.594482,299.236328 
	C191.998978,299.269745 192.403473,299.303162 192.807968,299.336578 
	C193.139465,297.590057 193.470978,295.843536 193.749161,294.377930 
	C195.458649,293.893188 196.858704,293.496216 198.407089,293.249969 
M214.901382,256.144714 
	C214.626007,256.417297 214.350632,256.689850 213.355621,256.613586 
	C210.279587,256.613586 207.203568,256.613586 203.651260,256.613586 
	C203.902237,260.182129 203.941238,263.148315 204.350784,266.062439 
	C205.226242,272.291595 208.978043,275.379364 215.677475,275.652039 
	C222.714371,275.938446 226.266190,273.505981 227.761780,267.118408 
	C229.546875,259.494293 228.575531,252.613174 222.240585,247.140121 
	C220.232346,245.405090 218.596268,243.239288 215.862015,240.259399 
	C220.862381,240.259399 224.303238,240.259399 228.279968,240.259399 
	C227.924942,237.501221 227.889008,235.193924 227.299850,233.037796 
	C225.737259,227.319214 221.022247,224.661102 214.008087,225.273834 
	C208.382065,225.765320 205.185989,228.974899 204.293976,234.789734 
	C203.454346,240.262939 204.780914,245.003815 208.668137,248.983826 
	C210.852493,251.220306 213.052231,253.441803 214.901382,256.144714 
M390.558502,242.945465 
	C394.215454,243.985580 395.550690,242.455475 395.003662,238.898132 
	C394.777039,237.424271 394.528717,235.950195 394.202820,234.495789 
	C392.762177,228.066650 389.230652,225.260406 382.600372,225.228653 
	C375.853027,225.196320 371.191376,228.230469 370.657440,234.641068 
	C369.903961,243.688446 370.060791,252.833633 370.222839,261.929962 
	C370.449005,274.628082 377.774292,278.854065 387.896515,273.399536 
	C390.377136,274.049225 392.124817,274.506927 393.872437,274.964661 
	C394.292389,273.334961 395.044250,271.711304 395.074188,270.074463 
	C395.195709,263.430908 394.929596,256.777832 395.148224,250.139511 
	C395.254761,246.904449 394.115479,245.552780 390.631439,245.359894 
	C390.057129,245.113800 389.482788,244.867706 388.842621,244.593399 
	C389.233154,244.098984 389.607147,243.625519 390.558502,242.945465 
M190.118713,358.764801 
	C144.678619,352.049988 110.946251,314.005096 109.533234,269.831482 
	C108.078560,224.356094 143.838348,174.901367 202.000122,173.669830 
	C202.000122,168.958099 202.000122,164.254074 202.000122,159.193085 
	C199.080902,159.356003 196.575165,159.780472 194.139053,159.529373 
	C192.576721,159.368317 190.516998,158.616379 189.716492,157.430084 
	C186.472626,152.622910 183.630127,147.544891 180.574326,142.458267 
	C181.397537,141.970230 181.941208,141.596298 182.527176,141.308487 
	C188.939362,138.158997 189.357498,136.667496 185.448975,130.752502 
	C184.625504,129.506287 183.794647,128.264526 182.943741,127.036980 
	C181.172623,124.481842 178.901031,123.803787 175.991943,125.054283 
	C171.708160,126.895706 167.400299,128.684143 163.071289,130.416702 
	C154.591751,133.810410 154.134750,135.315598 159.379822,143.032410 
	C159.754135,143.583084 160.201309,144.095123 160.502991,144.682465 
	C162.215729,148.016983 164.957352,148.370270 168.145584,147.315277 
	C169.525970,146.858505 170.853928,146.243256 172.535355,145.567505 
	C175.642914,150.674927 178.615723,155.560898 181.350891,160.056305 
	C169.046951,164.852737 157.168106,169.483459 145.289261,174.114197 
	C149.711914,165.875229 158.194565,161.940094 164.452805,155.085403 
	C159.689880,149.443481 155.007904,143.856369 150.279755,138.308624 
	C145.756287,133.001038 139.779572,131.020172 133.007950,130.769974 
	C125.223061,130.482330 118.236473,132.968613 111.751945,136.945892 
	C108.993515,138.637787 106.956161,139.932678 103.340828,138.052612 
	C99.010246,135.800583 94.102310,140.360657 94.955482,145.231125 
	C95.176102,146.490555 95.799606,147.679398 96.225433,148.865540 
	C93.615623,151.483017 91.015556,153.835861 88.709877,156.448502 
	C80.019569,166.295792 76.711777,180.916672 82.213715,189.707153 
	C86.752319,196.958511 92.683090,203.338516 98.271027,210.453629 
	C105.901588,204.185974 113.006470,198.350098 120.111359,192.514236 
	C120.679192,192.918839 121.247025,193.323456 121.814850,193.728073 
	C120.451172,195.948715 119.306450,198.344467 117.691383,200.364075 
	C87.105515,238.611053 87.066841,295.301483 117.672394,333.285706 
	C120.972450,337.381409 126.838127,341.341766 126.977707,345.516571 
	C127.121407,349.814423 121.699707,354.289642 118.735405,358.702148 
	C114.539062,364.948608 115.367615,367.512115 123.316513,373.000702 
	C128.948792,376.889679 132.165070,376.279663 136.199615,370.538361 
	C139.116409,366.387695 142.018082,362.226410 145.015076,357.943298 
	C162.955170,368.760284 181.587082,374.389099 202.120392,374.266205 
	C202.120392,369.228638 202.120392,364.651733 202.120392,359.826813 
	C198.232498,359.475189 194.622040,359.148651 190.118713,358.764801 
M271.669373,232.979721 
	C271.669373,246.916992 271.669373,260.854248 271.669373,274.870117 
	C275.177246,274.870117 278.060059,274.870117 281.245544,274.870117 
	C281.245544,265.830933 281.245544,257.205566 281.245544,248.580185 
	C281.496765,248.556381 281.747955,248.532562 281.999176,248.508759 
	C283.528534,257.277008 285.057892,266.045288 286.543091,274.560333 
	C287.279694,274.870453 287.576263,275.085419 287.889923,275.114227 
	C296.023102,275.861053 296.049774,275.825562 297.174927,267.883545 
	C298.050323,261.704376 298.961975,255.530350 299.857544,249.354050 
	C300.272949,249.385605 300.688354,249.417160 301.103760,249.448730 
	C301.103760,257.907013 301.103760,266.365265 301.103760,274.948822 
	C304.432373,274.948822 307.198883,274.948822 310.151459,274.948822 
	C310.151459,258.450653 310.151459,242.245544 310.151459,225.827301 
	C304.964386,225.827301 300.187714,225.827301 295.011475,225.827301 
	C293.835083,233.636642 292.674927,241.338242 291.514740,249.039841 
	C291.125519,249.008850 290.736298,248.977844 290.347076,248.946854 
	C289.255280,241.208496 288.163452,233.470139 287.097229,225.913239 
	C281.606171,225.913239 276.841339,225.913239 271.643250,225.913239 
	C271.643250,228.183929 271.643250,230.149994 271.669373,232.979721 
M354.949219,268.628571 
	C355.560791,270.793427 356.172394,272.958282 356.711121,274.865295 
	C360.260925,274.865295 363.329407,274.865295 366.326904,274.865295 
	C366.326904,258.384033 366.326904,242.311829 366.326904,225.987518 
	C362.993744,225.987518 359.961182,225.987518 356.302612,225.987518 
	C356.302612,230.184860 356.302612,234.019760 356.302612,237.854660 
	C355.889343,237.891388 355.476074,237.928101 355.062805,237.964828 
	C354.322449,234.318863 354.683960,229.634705 352.516022,227.333817 
	C350.548737,225.245834 345.827240,225.752838 341.980896,225.054214 
	C341.980896,242.457596 341.980896,258.640900 341.980896,274.893738 
	C345.547058,274.893738 348.757416,274.893738 352.189392,274.893738 
	C352.189392,269.129181 352.189392,263.788422 352.189392,258.447632 
	C352.470306,258.409454 352.751190,258.371246 353.032104,258.333069 
	C353.658142,261.524811 354.284210,264.716522 354.949219,268.628571 
M442.257477,226.968704 
	C435.582001,226.344360 428.906525,225.720016 421.991394,225.073257 
	C421.991394,242.418701 421.991394,258.607391 421.991394,274.962189 
	C425.451172,274.962189 428.544556,274.962189 432.583374,274.962189 
	C432.583374,267.470795 432.583374,260.228027 432.583374,252.985291 
	C433.373688,252.993439 434.163971,253.001587 434.954285,253.009735 
	C434.954285,257.269287 435.182404,261.543610 434.907806,265.785370 
	C434.294067,275.266113 434.412872,275.503815 443.591095,275.149414 
	C444.056396,275.131470 444.513977,274.913147 445.563599,274.628632 
	C444.419739,266.166382 447.846161,257.340179 443.059052,249.029312 
	C447.633209,242.765152 447.595612,233.787170 442.257477,226.968704 
M247.208466,225.630753 
	C246.327393,227.014267 245.153580,228.296402 244.631470,229.804199 
	C243.771881,232.286636 243.334091,234.915115 242.718506,237.482040 
	C242.268585,237.413147 241.818649,237.344254 241.368729,237.275360 
	C241.368729,233.546463 241.368729,229.817566 241.368729,225.926025 
	C237.712021,225.926025 234.640930,225.926025 231.166077,225.926025 
	C231.166077,242.421616 231.166077,258.592987 231.166077,274.776031 
	C234.813141,274.776031 238.021927,274.776031 241.743835,274.776031 
	C241.743835,269.279907 241.743835,264.271362 241.743835,259.262817 
	C243.650528,263.315948 244.761337,267.425659 245.471863,271.603394 
	C245.966385,274.511078 247.353394,275.520355 250.193268,275.260590 
	C252.392319,275.059357 254.624527,275.220398 257.076202,275.220398 
	C254.843155,266.270691 251.473907,258.256042 251.206863,250.139374 
	C250.944580,242.167130 253.833725,234.091202 255.422928,225.618042 
	C252.630585,225.618042 250.326630,225.618042 247.208466,225.630753 
M316.980774,231.588364 
	C315.627014,245.954010 314.273285,260.319641 312.898407,274.909302 
	C316.519745,274.909302 319.738922,274.909302 322.941315,274.909302 
	C323.174988,272.224182 323.372742,269.951569 323.581543,267.552124 
	C325.500824,267.552124 327.066284,267.552124 328.810638,267.552124 
	C329.133789,270.072449 329.423859,272.334686 329.759705,274.953888 
	C332.950378,274.953888 335.992767,274.953888 339.544647,274.953888 
	C338.276520,262.252258 337.040192,249.879898 335.806274,237.507278 
	C334.605804,225.469894 334.603943,225.672073 322.571686,225.497498 
	C318.358368,225.436371 316.831482,226.895630 316.980774,231.588364 
M176.307816,274.832886 
	C179.539215,274.832886 182.770615,274.832886 185.981674,274.832886 
	C186.260361,266.839813 186.324203,266.768311 191.875610,268.037842 
	C192.181534,270.242218 192.494690,272.498749 192.818665,274.833313 
	C196.111160,274.833313 199.133881,274.833313 202.380890,274.833313 
	C200.790100,258.223846 199.246201,242.103943 197.665695,225.601776 
	C192.823578,225.601776 188.523117,225.733673 184.235687,225.554184 
	C181.496780,225.439514 180.489944,226.389740 180.246246,229.169861 
	C178.928497,244.202896 177.421097,259.219299 176.307816,274.832886 
M409.633575,254.984329 
	C412.237579,254.702744 414.841583,254.421158 417.826569,254.098358 
	C417.826569,251.079147 417.826569,248.176788 417.826569,244.671463 
	C415.877014,244.671463 413.958557,245.078217 412.349182,244.547531 
	C410.969391,244.092545 409.204712,242.743225 408.898987,241.478027 
	C407.973999,237.650009 408.985718,234.854599 413.885071,235.647171 
	C417.932373,236.301865 419.395630,234.451172 418.712799,230.543793 
	C418.440277,228.984283 418.327454,227.396881 418.149170,225.883240 
	C411.248932,225.883240 404.970917,225.883240 398.186768,225.883240 
	C398.186768,242.341934 398.186768,258.514496 398.186768,274.946472 
	C405.432709,274.946472 412.155426,274.946472 418.709106,274.946472 
	C418.709106,271.526978 418.709106,268.490540 418.709106,265.513123 
	C408.145721,264.590454 408.145721,264.590454 409.633575,254.984329 
M158.152985,236.171341 
	C158.336975,238.297012 158.669266,240.421951 158.679977,242.548492 
	C158.734238,253.313644 158.704956,264.079224 158.704956,274.977905 
	C162.303757,274.977905 165.398102,274.977905 168.894104,274.977905 
	C168.894104,263.876404 169.070358,253.088928 168.807770,242.312134 
	C168.702011,237.971436 169.108307,234.752670 174.538879,235.216003 
	C174.538879,231.945923 174.538879,229.025314 174.538879,225.993347 
	C167.230240,225.993347 160.202225,225.993347 153.143524,225.993347 
	C153.143524,229.305084 153.143524,232.204361 153.143524,235.266602 
	C154.797791,235.446640 156.094894,235.587799 158.152985,236.171341 
M335.423401,288.616089 
	C334.450226,287.578796 333.477051,286.541504 332.128540,285.104126 
	C332.128540,290.424194 332.128540,294.751068 332.128540,299.077942 
	C332.595459,299.099243 333.062408,299.120544 333.529327,299.141876 
	C333.674683,296.528320 333.820007,293.914764 334.006836,290.554962 
	C336.540985,294.061554 338.606995,296.920410 340.673004,299.779236 
	C340.937012,299.516022 341.200989,299.252777 341.464966,298.989532 
	C341.464966,294.601135 341.464966,290.212738 341.464966,285.824310 
	C341.071838,285.831635 340.678711,285.838989 340.285553,285.846313 
	C339.981598,287.948151 339.677612,290.049988 339.198212,293.364899 
	C337.623260,291.421906 336.756683,290.352783 335.423401,288.616089 
M270.826752,296.602844 
	C273.127228,297.311218 275.427704,298.019592 278.427094,298.943176 
	C276.727142,294.304016 275.119049,289.915588 273.510956,285.527161 
	C272.894104,285.525482 272.277252,285.523804 271.660400,285.522125 
	C270.002899,289.920380 268.345367,294.318634 266.687836,298.716888 
	C267.013947,298.940887 267.340027,299.164856 267.666138,299.388855 
	C268.489380,298.604492 269.312622,297.820160 270.826752,296.602844 
M180.284637,288.358490 
	C179.449646,287.520691 178.614655,286.682892 177.779648,285.845093 
	C177.201721,286.572144 176.406784,287.214325 176.083527,288.040985 
	C174.696304,291.588440 173.447845,295.190155 172.148834,298.772095 
	C172.384415,299.189789 172.619980,299.607452 172.855560,300.025146 
	C176.338364,294.720825 179.917648,295.588287 183.794159,298.743530 
	C182.676529,295.518219 181.558914,292.292938 180.284637,288.358490 
M198.792465,329.730530 
	C198.902878,334.710907 198.886810,339.699036 199.192902,344.667358 
	C199.298767,346.385956 200.205063,348.055237 200.745743,349.747040 
	C201.363464,348.134186 202.353867,346.558105 202.517227,344.900452 
	C202.809769,341.932373 202.605560,338.915253 202.606781,335.918610 
	C202.608154,332.539124 202.607101,329.159607 202.607101,325.780121 
	C201.989517,325.639496 201.371948,325.498871 200.754364,325.358276 
	C200.047729,326.567932 199.341095,327.777618 198.792465,329.730530 
M255.573318,296.681610 
	C253.686752,296.215881 251.134369,296.316223 250.113022,295.114899 
	C249.209030,294.051575 249.332275,291.122650 250.181732,289.744507 
	C252.873093,285.377930 256.120514,289.610107 259.584503,290.047668 
	C257.936829,285.631958 254.526306,284.756439 251.525894,286.086273 
	C249.433914,287.013489 247.025650,290.180389 247.102051,292.260803 
	C247.187714,294.592743 249.435989,297.797699 251.608124,298.868561 
	C254.574219,300.330811 258.015869,299.433350 259.750031,294.549927 
	C258.061157,295.327454 257.115997,295.762573 255.573318,296.681610 
M207.221954,298.905212 
	C211.816360,299.210663 207.186859,294.990936 210.741959,293.924042 
	C212.625290,293.656525 217.200394,294.214233 216.349365,289.336334 
	C215.368210,283.712555 210.639832,286.238464 206.948318,286.104584 
	C206.948318,290.334167 206.948318,294.274994 207.221954,298.905212 
M140.803665,263.334412 
	C134.670273,263.334656 128.528702,263.174438 122.411186,263.486053 
	C121.334663,263.540863 120.358734,265.570496 119.336327,266.688110 
	C120.374695,267.596222 121.379288,269.240234 122.457069,269.289673 
	C128.245605,269.555328 134.056412,269.539154 139.849457,269.334839 
	C141.034103,269.293060 142.955826,268.192902 143.142059,267.292053 
	C143.381088,266.135864 142.209351,264.688080 140.803665,263.334412 
M311.408752,296.010712 
	C315.961731,300.880157 320.351044,300.650116 322.036407,296.568787 
	C319.671356,296.366852 316.730408,296.556763 314.186401,295.642303 
	C313.373840,295.350250 312.865601,290.850891 313.504913,290.477020 
	C315.941528,289.052155 318.903564,288.525696 321.849823,287.607300 
	C320.473846,284.701263 317.210297,285.220581 314.665710,286.210144 
	C310.585175,287.796967 310.014740,291.403992 311.408752,296.010712 
M202.619125,201.284561 
	C202.619125,195.588211 202.619125,189.891846 202.619125,184.195496 
	C201.989624,184.228821 201.360123,184.262146 200.730621,184.295471 
	C200.730621,192.077698 200.730621,199.859909 200.730621,207.642136 
	C201.224945,207.663406 201.719254,207.684677 202.213577,207.705963 
	C202.349182,205.874084 202.484787,204.042206 202.619125,201.284561 
M290.400238,292.362030 
	C291.324005,290.278748 292.247772,288.195496 293.065216,286.351990 
	C290.778564,286.351990 287.802948,286.351990 284.827332,286.351990 
	C292.031128,288.901398 285.355560,296.010895 290.400543,300.429596 
	C290.400543,297.195618 290.400543,295.209778 290.400238,292.362030 
M223.713272,290.935486 
	C223.713272,293.552124 223.713272,296.168793 223.713272,299.250397 
	C226.227463,299.088135 228.223236,298.959351 230.219009,298.830536 
	C230.196793,298.426300 230.174576,298.022034 230.152359,297.617798 
	C228.792801,297.382446 227.433243,297.147095 225.334045,296.783722 
	C225.334045,293.001801 225.334045,289.398712 225.334045,285.795624 
	C224.892365,285.826965 224.450684,285.858307 224.009018,285.889648 
	C223.910629,287.302032 223.812225,288.714417 223.713272,290.935486 
M166.537613,206.137314 
	C167.073242,205.093338 168.314667,203.747314 168.019974,203.058685 
	C166.862122,200.353241 165.323074,197.786972 163.693253,195.322678 
	C163.230194,194.622513 161.979675,194.443176 161.090302,194.024994 
	C160.928619,195.034424 160.304825,196.286972 160.685715,197.010971 
	C162.285355,200.051712 164.185501,202.934372 166.537613,206.137314 
M129.913757,306.118652 
	C130.011169,307.208893 130.108582,308.299164 130.249878,309.880463 
	C134.013229,307.851135 137.116058,306.353210 139.994934,304.506165 
	C140.743652,304.025848 140.793045,302.455536 141.163635,301.385834 
	C140.157120,301.365570 138.981888,300.997437 138.175064,301.388855 
	C135.522186,302.675659 133.002914,304.237854 129.913757,306.118652 
M141.062332,228.890869 
	C137.420197,227.387222 134.616058,222.971191 129.769775,225.359360 
	C132.696030,227.989029 135.775543,230.155930 139.117310,231.784744 
	C141.584381,232.987198 142.183472,231.409515 141.062332,228.890869 
M165.650085,327.256897 
	C163.766037,330.129669 161.753937,332.930939 160.083221,335.922791 
	C159.636063,336.723541 160.230972,338.106232 160.347473,339.221741 
	C161.259445,338.765594 162.546860,338.547729 163.015060,337.809967 
	C164.608810,335.298676 166.029678,332.655731 167.239899,329.939789 
	C167.512329,329.328400 166.664597,328.217896 165.650085,327.256897 
M303.296997,298.156647 
	C303.296997,294.079926 303.296997,290.003204 303.296997,285.926453 
	C302.701996,285.947845 302.107025,285.969208 301.512024,285.990601 
	C301.512024,290.287018 301.512024,294.583466 301.512024,298.879852 
	C301.983673,298.850006 302.455292,298.820160 303.296997,298.156647 
M237.301224,293.340942 
	C237.468613,295.285370 237.636002,297.229797 237.803391,299.174225 
	C238.220032,299.102722 238.636688,299.031219 239.053329,298.959717 
	C239.053329,294.651581 239.053329,290.343475 239.053329,286.035370 
	C238.571960,286.023010 238.090576,286.010620 237.609207,285.998230 
	C237.506332,288.152435 237.403473,290.306671 237.301224,293.340942 
z"/>
<path fill="#F79308" opacity="1.000000" stroke="none" 
	d="
M190.565140,358.793457 
	C194.622040,359.148651 198.232498,359.475189 202.120392,359.826813 
	C202.120392,364.651733 202.120392,369.228638 202.120392,374.266205 
	C181.587082,374.389099 162.955170,368.760284 145.015076,357.943298 
	C142.018082,362.226410 139.116409,366.387695 136.199615,370.538361 
	C132.165070,376.279663 128.948792,376.889679 123.316513,373.000702 
	C115.367615,367.512115 114.539062,364.948608 118.735405,358.702148 
	C121.699707,354.289642 127.121407,349.814423 126.977707,345.516571 
	C126.838127,341.341766 120.972450,337.381409 117.672394,333.285706 
	C87.066841,295.301483 87.105515,238.611053 117.691383,200.364075 
	C119.306450,198.344467 120.451172,195.948715 121.814850,193.728073 
	C121.247025,193.323456 120.679192,192.918839 120.111359,192.514236 
	C113.006470,198.350098 105.901588,204.185974 98.271027,210.453629 
	C92.683090,203.338516 86.752319,196.958511 82.213715,189.707153 
	C76.711777,180.916672 80.019569,166.295792 88.709877,156.448502 
	C91.015556,153.835861 93.615623,151.483017 96.225433,148.865540 
	C95.799606,147.679398 95.176102,146.490555 94.955482,145.231125 
	C94.102310,140.360657 99.010246,135.800583 103.340828,138.052612 
	C106.956161,139.932678 108.993515,138.637787 111.751945,136.945892 
	C118.236473,132.968613 125.223061,130.482330 133.007950,130.769974 
	C139.779572,131.020172 145.756287,133.001038 150.279755,138.308624 
	C155.007904,143.856369 159.689880,149.443481 164.452805,155.085403 
	C158.194565,161.940094 149.711914,165.875229 145.289261,174.114197 
	C157.168106,169.483459 169.046951,164.852737 181.350891,160.056305 
	C178.615723,155.560898 175.642914,150.674927 172.535355,145.567505 
	C170.853928,146.243256 169.525970,146.858505 168.145584,147.315277 
	C164.957352,148.370270 162.215729,148.016983 160.502991,144.682465 
	C160.201309,144.095123 159.754135,143.583084 159.379822,143.032410 
	C154.134750,135.315598 154.591751,133.810410 163.071289,130.416702 
	C167.400299,128.684143 171.708160,126.895706 175.991943,125.054283 
	C178.901031,123.803787 181.172623,124.481842 182.943741,127.036980 
	C183.794647,128.264526 184.625504,129.506287 185.448975,130.752502 
	C189.357498,136.667496 188.939362,138.158997 182.527176,141.308487 
	C181.941208,141.596298 181.397537,141.970230 180.574326,142.458267 
	C183.630127,147.544891 186.472626,152.622910 189.716492,157.430084 
	C190.516998,158.616379 192.576721,159.368317 194.139053,159.529373 
	C196.575165,159.780472 199.080902,159.356003 202.000122,159.193085 
	C202.000122,164.254074 202.000122,168.958099 202.000122,173.669830 
	C143.838348,174.901367 108.078560,224.356094 109.533234,269.831482 
	C110.946251,314.005096 144.678619,352.049988 190.565140,358.793457 
z"/>
<path fill="#F2930E" opacity="1.000000" stroke="none" 
	d="
M271.656311,232.547882 
	C271.643250,230.149994 271.643250,228.183929 271.643250,225.913239 
	C276.841339,225.913239 281.606171,225.913239 287.097229,225.913239 
	C288.163452,233.470139 289.255280,241.208496 290.347076,248.946854 
	C290.736298,248.977844 291.125519,249.008850 291.514740,249.039841 
	C292.674927,241.338242 293.835083,233.636642 295.011475,225.827301 
	C300.187714,225.827301 304.964386,225.827301 310.151459,225.827301 
	C310.151459,242.245544 310.151459,258.450653 310.151459,274.948822 
	C307.198883,274.948822 304.432373,274.948822 301.103760,274.948822 
	C301.103760,266.365265 301.103760,257.907013 301.103760,249.448730 
	C300.688354,249.417160 300.272949,249.385605 299.857544,249.354050 
	C298.961975,255.530350 298.050323,261.704376 297.174927,267.883545 
	C296.049774,275.825562 296.023102,275.861053 287.889923,275.114227 
	C287.576263,275.085419 287.279694,274.870453 286.543091,274.560333 
	C285.057892,266.045288 283.528534,257.277008 281.999176,248.508759 
	C281.747955,248.532562 281.496765,248.556381 281.245544,248.580185 
	C281.245544,257.205566 281.245544,265.830933 281.245544,274.870117 
	C278.060059,274.870117 275.177246,274.870117 271.669373,274.870117 
	C271.669373,260.854248 271.669373,246.916992 271.656311,232.547882 
z"/>
<path fill="#EE910D" opacity="1.000000" stroke="none" 
	d="
M354.929749,268.268433 
	C354.284210,264.716522 353.658142,261.524811 353.032104,258.333069 
	C352.751190,258.371246 352.470306,258.409454 352.189392,258.447632 
	C352.189392,263.788422 352.189392,269.129181 352.189392,274.893738 
	C348.757416,274.893738 345.547058,274.893738 341.980896,274.893738 
	C341.980896,258.640900 341.980896,242.457596 341.980896,225.054214 
	C345.827240,225.752838 350.548737,225.245834 352.516022,227.333817 
	C354.683960,229.634705 354.322449,234.318863 355.062805,237.964828 
	C355.476074,237.928101 355.889343,237.891388 356.302612,237.854660 
	C356.302612,234.019760 356.302612,230.184860 356.302612,225.987518 
	C359.961182,225.987518 362.993744,225.987518 366.326904,225.987518 
	C366.326904,242.311829 366.326904,258.384033 366.326904,274.865295 
	C363.329407,274.865295 360.260925,274.865295 356.711121,274.865295 
	C356.172394,272.958282 355.560791,270.793427 354.929749,268.268433 
z"/>
<path fill="#F2930E" opacity="1.000000" stroke="none" 
	d="
M442.565125,227.202118 
	C447.595612,233.787170 447.633209,242.765152 443.059052,249.029312 
	C447.846161,257.340179 444.419739,266.166382 445.563599,274.628632 
	C444.513977,274.913147 444.056396,275.131470 443.591095,275.149414 
	C434.412872,275.503815 434.294067,275.266113 434.907806,265.785370 
	C435.182404,261.543610 434.954285,257.269287 434.954285,253.009735 
	C434.163971,253.001587 433.373688,252.993439 432.583374,252.985291 
	C432.583374,260.228027 432.583374,267.470795 432.583374,274.962189 
	C428.544556,274.962189 425.451172,274.962189 421.991394,274.962189 
	C421.991394,258.607391 421.991394,242.418701 421.991394,225.073257 
	C428.906525,225.720016 435.582001,226.344360 442.565125,227.202118 
M436.216034,238.629761 
	C435.394775,237.335693 434.573486,236.041611 433.752197,234.747528 
	C433.315155,234.998886 432.878143,235.250244 432.441101,235.501587 
	C432.441101,238.211105 432.441101,240.920609 432.441101,243.630127 
	C432.981415,243.834732 433.521759,244.039352 434.062073,244.243958 
	C434.778870,242.653305 435.495697,241.062637 436.216034,238.629761 
z"/>
<path fill="#F0920D" opacity="1.000000" stroke="none" 
	d="
M247.615570,225.624390 
	C250.326630,225.618042 252.630585,225.618042 255.422928,225.618042 
	C253.833725,234.091202 250.944580,242.167130 251.206863,250.139374 
	C251.473907,258.256042 254.843155,266.270691 257.076202,275.220398 
	C254.624527,275.220398 252.392319,275.059357 250.193268,275.260590 
	C247.353394,275.520355 245.966385,274.511078 245.471863,271.603394 
	C244.761337,267.425659 243.650528,263.315948 241.743835,259.262817 
	C241.743835,264.271362 241.743835,269.279907 241.743835,274.776031 
	C238.021927,274.776031 234.813141,274.776031 231.166077,274.776031 
	C231.166077,258.592987 231.166077,242.421616 231.166077,225.926025 
	C234.640930,225.926025 237.712021,225.926025 241.368729,225.926025 
	C241.368729,229.817566 241.368729,233.546463 241.368729,237.275360 
	C241.818649,237.344254 242.268585,237.413147 242.718506,237.482040 
	C243.334091,234.915115 243.771881,232.286636 244.631470,229.804199 
	C245.153580,228.296402 246.327393,227.014267 247.615570,225.624390 
z"/>
<path fill="#ED910F" opacity="1.000000" stroke="none" 
	d="
M390.978485,245.731842 
	C394.115479,245.552780 395.254761,246.904449 395.148224,250.139511 
	C394.929596,256.777832 395.195709,263.430908 395.074188,270.074463 
	C395.044250,271.711304 394.292389,273.334961 393.872437,274.964661 
	C392.124817,274.506927 390.377136,274.049225 387.896515,273.399536 
	C377.774292,278.854065 370.449005,274.628082 370.222839,261.929962 
	C370.060791,252.833633 369.903961,243.688446 370.657440,234.641068 
	C371.191376,228.230469 375.853027,225.196320 382.600372,225.228653 
	C389.230652,225.260406 392.762177,228.066650 394.202820,234.495789 
	C394.528717,235.950195 394.777039,237.424271 395.003662,238.898132 
	C395.550690,242.455475 394.215454,243.985580 389.854065,242.956177 
	C385.543060,243.427338 384.613281,241.630203 384.759033,238.318649 
	C384.807800,237.209915 383.466766,236.040024 382.761047,234.898087 
	C381.881104,236.082550 380.320801,237.223389 380.241516,238.459183 
	C379.934875,243.241638 380.080566,248.054428 380.096344,252.855804 
	C380.107788,256.337372 380.052368,259.828186 380.309418,263.293915 
	C380.378906,264.230499 381.318451,265.351654 382.172913,265.871399 
	C382.574768,266.115845 384.436462,265.101440 384.417755,264.716766 
	C384.259460,261.461945 383.824890,258.220245 383.462524,254.975800 
	C383.182037,252.464127 382.550720,249.915390 382.833282,247.470779 
	C382.903748,246.861176 385.889252,246.537506 387.556000,246.181259 
	C388.677612,245.941528 389.836365,245.875549 390.978485,245.731842 
z"/>
<path fill="#F2930E" opacity="1.000000" stroke="none" 
	d="
M317.048157,231.210144 
	C316.831482,226.895630 318.358368,225.436371 322.571686,225.497498 
	C334.603943,225.672073 334.605804,225.469894 335.806274,237.507278 
	C337.040192,249.879898 338.276520,262.252258 339.544647,274.953888 
	C335.992767,274.953888 332.950378,274.953888 329.759705,274.953888 
	C329.423859,272.334686 329.133789,270.072449 328.810638,267.552124 
	C327.066284,267.552124 325.500824,267.552124 323.581543,267.552124 
	C323.372742,269.951569 323.174988,272.224182 322.941315,274.909302 
	C319.738922,274.909302 316.519745,274.909302 312.898407,274.909302 
	C314.273285,260.319641 315.627014,245.954010 317.048157,231.210144 
M328.159363,256.280670 
	C327.716553,251.902985 327.273773,247.525299 326.830963,243.147614 
	C326.327301,243.126221 325.823639,243.104828 325.319977,243.083450 
	C324.980469,248.034821 324.093811,253.038116 324.556549,257.913361 
	C324.756378,260.018951 327.284637,259.522858 328.159363,256.280670 
z"/>
<path fill="#F0920D" opacity="1.000000" stroke="none" 
	d="
M176.143448,274.537170 
	C177.421097,259.219299 178.928497,244.202896 180.246246,229.169861 
	C180.489944,226.389740 181.496780,225.439514 184.235687,225.554184 
	C188.523117,225.733673 192.823578,225.601776 197.665695,225.601776 
	C199.246201,242.103943 200.790100,258.223846 202.380890,274.833313 
	C199.133881,274.833313 196.111160,274.833313 192.818665,274.833313 
	C192.494690,272.498749 192.181534,270.242218 191.875610,268.037842 
	C186.324203,266.768311 186.260361,266.839813 185.981674,274.832886 
	C182.770615,274.832886 179.539215,274.832886 176.143448,274.537170 
M189.578232,240.027710 
	C189.389008,239.831543 189.208191,239.625122 188.998978,239.453278 
	C188.975189,239.433762 188.703583,239.600555 188.695206,239.694199 
	C188.208557,245.145599 187.622787,250.593140 187.371582,256.055969 
	C187.326675,257.032654 188.672592,258.073303 189.376328,259.084412 
	C189.913437,258.083069 190.952133,257.056763 190.903763,256.084564 
	C190.648270,250.949921 190.118912,245.828934 189.578232,240.027710 
z"/>
<path fill="#ED910F" opacity="1.000000" stroke="none" 
	d="
M215.245026,255.670059 
	C213.052231,253.441803 210.852493,251.220306 208.668137,248.983826 
	C204.780914,245.003815 203.454346,240.262939 204.293976,234.789734 
	C205.185989,228.974899 208.382065,225.765320 214.008087,225.273834 
	C221.022247,224.661102 225.737259,227.319214 227.299850,233.037796 
	C227.889008,235.193924 227.924942,237.501221 228.279968,240.259399 
	C224.303238,240.259399 220.862381,240.259399 215.862015,240.259399 
	C218.596268,243.239288 220.232346,245.405090 222.240585,247.140121 
	C228.575531,252.613174 229.546875,259.494293 227.761780,267.118408 
	C226.266190,273.505981 222.714371,275.938446 215.677475,275.652039 
	C208.978043,275.379364 205.226242,272.291595 204.350784,266.062439 
	C203.941238,263.148315 203.902237,260.182129 203.651260,256.613586 
	C207.203568,256.613586 210.279587,256.613586 213.666611,257.231232 
	C213.960770,259.656769 213.657150,261.527527 214.034561,263.248993 
	C214.261383,264.283539 215.550064,265.085266 216.361542,265.991638 
	C217.028595,265.029694 218.428360,263.868256 218.230560,263.141815 
	C217.530518,260.570892 216.284256,258.148651 215.245026,255.670059 
M217.656082,237.957855 
	C216.966949,237.003754 216.277802,236.049652 215.588654,235.095551 
	C215.037140,235.774536 213.896973,236.649414 214.045395,237.095505 
	C214.476929,238.392395 215.424698,239.517502 216.169968,240.709976 
	C216.683945,240.119965 217.197922,239.529953 217.656082,237.957855 
z"/>
<path fill="#ED910E" opacity="1.000000" stroke="none" 
	d="
M409.342407,255.355087 
	C408.145721,264.590454 408.145721,264.590454 418.709106,265.513123 
	C418.709106,268.490540 418.709106,271.526978 418.709106,274.946472 
	C412.155426,274.946472 405.432709,274.946472 398.186768,274.946472 
	C398.186768,258.514496 398.186768,242.341934 398.186768,225.883240 
	C404.970917,225.883240 411.248932,225.883240 418.149170,225.883240 
	C418.327454,227.396881 418.440277,228.984283 418.712799,230.543793 
	C419.395630,234.451172 417.932373,236.301865 413.885071,235.647171 
	C408.985718,234.854599 407.973999,237.650009 408.898987,241.478027 
	C409.204712,242.743225 410.969391,244.092545 412.349182,244.547531 
	C413.958557,245.078217 415.877014,244.671463 417.826569,244.671463 
	C417.826569,248.176788 417.826569,251.079147 417.826569,254.098358 
	C414.841583,254.421158 412.237579,254.702744 409.342407,255.355087 
z"/>
<path fill="#F2930E" opacity="1.000000" stroke="none" 
	d="
M157.772491,235.950150 
	C156.094894,235.587799 154.797791,235.446640 153.143524,235.266602 
	C153.143524,232.204361 153.143524,229.305084 153.143524,225.993347 
	C160.202225,225.993347 167.230240,225.993347 174.538879,225.993347 
	C174.538879,229.025314 174.538879,231.945923 174.538879,235.216003 
	C169.108307,234.752670 168.702011,237.971436 168.807770,242.312134 
	C169.070358,253.088928 168.894104,263.876404 168.894104,274.977905 
	C165.398102,274.977905 162.303757,274.977905 158.704956,274.977905 
	C158.704956,264.079224 158.734238,253.313644 158.679977,242.548492 
	C158.669266,240.421951 158.336975,238.297012 157.772491,235.950150 
z"/>
<path fill="#281904" opacity="1.000000" stroke="none" 
	d="
M390.804962,245.545868 
	C389.836365,245.875549 388.677612,245.941528 387.556000,246.181259 
	C385.889252,246.537506 382.903748,246.861176 382.833282,247.470779 
	C382.550720,249.915390 383.182037,252.464127 383.462524,254.975800 
	C383.824890,258.220245 384.259460,261.461945 384.417755,264.716766 
	C384.436462,265.101440 382.574768,266.115845 382.172913,265.871399 
	C381.318451,265.351654 380.378906,264.230499 380.309418,263.293915 
	C380.052368,259.828186 380.107788,256.337372 380.096344,252.855804 
	C380.080566,248.054428 379.934875,243.241638 380.241516,238.459183 
	C380.320801,237.223389 381.881104,236.082550 382.761047,234.898087 
	C383.466766,236.040024 384.807800,237.209915 384.759033,238.318649 
	C384.613281,241.630203 385.543060,243.427338 389.565369,243.059464 
	C389.607147,243.625519 389.233154,244.098984 388.842621,244.593399 
	C389.482788,244.867706 390.057129,245.113800 390.804962,245.545868 
z"/>
<path fill="#CECFCD" opacity="1.000000" stroke="none" 
	d="
M335.656738,288.949890 
	C336.756683,290.352783 337.623260,291.421906 339.198212,293.364899 
	C339.677612,290.049988 339.981598,287.948151 340.285553,285.846313 
	C340.678711,285.838989 341.071838,285.831635 341.464966,285.824310 
	C341.464966,290.212738 341.464966,294.601135 341.464966,298.989532 
	C341.200989,299.252777 340.937012,299.516022 340.673004,299.779236 
	C338.606995,296.920410 336.540985,294.061554 334.006836,290.554962 
	C333.820007,293.914764 333.674683,296.528320 333.529327,299.141876 
	C333.062408,299.120544 332.595459,299.099243 332.128540,299.077942 
	C332.128540,294.751068 332.128540,290.424194 332.128540,285.104126 
	C333.477051,286.541504 334.450226,287.578796 335.656738,288.949890 
z"/>
<path fill="#DADAD9" opacity="1.000000" stroke="none" 
	d="
M270.481323,296.819336 
	C269.312622,297.820160 268.489380,298.604492 267.666138,299.388855 
	C267.340027,299.164856 267.013947,298.940887 266.687836,298.716888 
	C268.345367,294.318634 270.002899,289.920380 271.660400,285.522125 
	C272.277252,285.523804 272.894104,285.525482 273.510956,285.527161 
	C275.119049,289.915588 276.727142,294.304016 278.427094,298.943176 
	C275.427704,298.019592 273.127228,297.311218 270.481323,296.819336 
z"/>
<path fill="#CECFCD" opacity="1.000000" stroke="none" 
	d="
M180.362961,288.713074 
	C181.558914,292.292938 182.676529,295.518219 183.794159,298.743530 
	C179.917648,295.588287 176.338364,294.720825 172.855560,300.025146 
	C172.619980,299.607452 172.384415,299.189789 172.148834,298.772095 
	C173.447845,295.190155 174.696304,291.588440 176.083527,288.040985 
	C176.406784,287.214325 177.201721,286.572144 177.779663,285.845093 
	C178.614655,286.682892 179.449646,287.520691 180.362961,288.713074 
z"/>
<path fill="#C18329" opacity="1.000000" stroke="none" 
	d="
M198.713455,329.358917 
	C199.341095,327.777618 200.047729,326.567932 200.754364,325.358276 
	C201.371948,325.498871 201.989517,325.639496 202.607101,325.780121 
	C202.607101,329.159607 202.608154,332.539124 202.606781,335.918610 
	C202.605560,338.915253 202.809769,341.932373 202.517227,344.900452 
	C202.353867,346.558105 201.363464,348.134186 200.745728,349.747040 
	C200.205063,348.055237 199.298767,346.385956 199.192902,344.667358 
	C198.886810,339.699036 198.902878,334.710907 198.713455,329.358917 
z"/>
<path fill="#CECFCD" opacity="1.000000" stroke="none" 
	d="
M255.872070,296.439636 
	C257.115997,295.762573 258.061157,295.327454 259.750031,294.549927 
	C258.015869,299.433350 254.574219,300.330811 251.608124,298.868561 
	C249.435989,297.797699 247.187714,294.592743 247.102051,292.260803 
	C247.025650,290.180389 249.433914,287.013489 251.525894,286.086273 
	C254.526306,284.756439 257.936829,285.631958 259.584503,290.047668 
	C256.120514,289.610107 252.873093,285.377930 250.181732,289.744507 
	C249.332275,291.122650 249.209030,294.051575 250.113022,295.114899 
	C251.134369,296.316223 253.686752,296.215881 255.872070,296.439636 
z"/>
<path fill="#DADAD9" opacity="1.000000" stroke="none" 
	d="
M207.085144,298.560547 
	C206.948318,294.274994 206.948318,290.334167 206.948318,286.104584 
	C210.639832,286.238464 215.368210,283.712555 216.349365,289.336334 
	C217.200394,294.214233 212.625290,293.656525 210.741959,293.924042 
	C207.186859,294.990936 211.816360,299.210663 207.085144,298.560547 
z"/>
<path fill="#C18329" opacity="1.000000" stroke="none" 
	d="
M141.224533,263.350159 
	C142.209351,264.688080 143.381088,266.135864 143.142059,267.292053 
	C142.955826,268.192902 141.034103,269.293060 139.849457,269.334839 
	C134.056412,269.539154 128.245605,269.555328 122.457069,269.289673 
	C121.379288,269.240234 120.374695,267.596222 119.336334,266.688110 
	C120.358734,265.570496 121.334663,263.540863 122.411186,263.486053 
	C128.528702,263.174438 134.670273,263.334656 141.224533,263.350159 
M128.613190,264.935333 
	C126.962692,264.945679 125.275520,264.754547 123.676140,265.045654 
	C122.785645,265.207794 122.041328,266.172974 121.231125,266.776245 
	C122.039429,267.417328 122.827934,268.582794 123.659248,268.614166 
	C128.918167,268.812653 134.188644,268.840729 139.449646,268.705505 
	C140.264099,268.684601 141.049576,267.536011 141.848465,266.908936 
	C141.057877,266.265259 140.301727,265.123047 139.470657,265.065674 
	C136.184525,264.838776 132.874908,264.951843 128.613190,264.935333 
z"/>
<path fill="#CECFCD" opacity="1.000000" stroke="none" 
	d="
M311.256653,295.679932 
	C310.014740,291.403992 310.585175,287.796967 314.665710,286.210144 
	C317.210297,285.220581 320.473846,284.701263 321.849823,287.607300 
	C318.903564,288.525696 315.941528,289.052155 313.504913,290.477020 
	C312.865601,290.850891 313.373840,295.350250 314.186401,295.642303 
	C316.730408,296.556763 319.671356,296.366852 322.036407,296.568787 
	C320.351044,300.650116 315.961731,300.880157 311.256653,295.679932 
z"/>
<path fill="#C18329" opacity="1.000000" stroke="none" 
	d="
M202.619751,201.747437 
	C202.484787,204.042206 202.349182,205.874084 202.213577,207.705963 
	C201.719254,207.684677 201.224945,207.663406 200.730621,207.642136 
	C200.730621,199.859909 200.730621,192.077698 200.730621,184.295471 
	C201.360123,184.262146 201.989624,184.228821 202.619125,184.195496 
	C202.619125,189.891846 202.619125,195.588211 202.619751,201.747437 
z"/>
<path fill="#DADAD9" opacity="1.000000" stroke="none" 
	d="
M198.258759,293.099243 
	C196.858704,293.496216 195.458649,293.893188 193.749161,294.377930 
	C193.470978,295.843536 193.139465,297.590057 192.807968,299.336578 
	C192.403473,299.303162 191.998978,299.269745 191.594482,299.236328 
	C191.594482,294.992584 191.594482,290.748810 191.594482,285.501862 
	C194.006195,286.008545 196.795715,286.148895 199.053833,287.316711 
	C199.818832,287.712341 199.240784,290.704926 198.872223,292.720398 
	C198.467957,292.930054 198.258759,293.099243 198.258759,293.099243 
M193.416290,288.247498 
	C194.725952,289.315735 196.035599,290.383972 197.345261,291.452179 
	C197.694489,290.773132 198.043732,290.094086 198.392960,289.415009 
	C196.790161,288.809753 195.187378,288.204468 193.416290,288.247498 
z"/>
<path fill="#CECFCD" opacity="1.000000" stroke="none" 
	d="
M290.400391,292.792969 
	C290.400543,295.209778 290.400543,297.195618 290.400543,300.429596 
	C285.355560,296.010895 292.031128,288.901398 284.827332,286.351990 
	C287.802948,286.351990 290.778564,286.351990 293.065216,286.351990 
	C292.247772,288.195496 291.324005,290.278748 290.400391,292.792969 
z"/>
<path fill="#DADAD9" opacity="1.000000" stroke="none" 
	d="
M223.713562,290.531128 
	C223.812225,288.714417 223.910629,287.302032 224.009018,285.889648 
	C224.450684,285.858307 224.892365,285.826965 225.334045,285.795624 
	C225.334045,289.398712 225.334045,293.001801 225.334045,296.783722 
	C227.433243,297.147095 228.792801,297.382446 230.152359,297.617798 
	C230.174576,298.022034 230.196793,298.426300 230.219009,298.830536 
	C228.223236,298.959351 226.227463,299.088135 223.713272,299.250397 
	C223.713272,296.168793 223.713272,293.552124 223.713562,290.531128 
z"/>
<path fill="#C18329" opacity="1.000000" stroke="none" 
	d="
M166.256622,206.006104 
	C164.185501,202.934372 162.285355,200.051712 160.685715,197.010971 
	C160.304825,196.286972 160.928619,195.034424 161.090302,194.024994 
	C161.979675,194.443176 163.230194,194.622513 163.693253,195.322678 
	C165.323074,197.786972 166.862122,200.353241 168.019974,203.058685 
	C168.314667,203.747314 167.073242,205.093338 166.256622,206.006104 
z"/>
<path fill="#C18329" opacity="1.000000" stroke="none" 
	d="
M130.173035,305.906464 
	C133.002914,304.237854 135.522186,302.675659 138.175064,301.388855 
	C138.981888,300.997437 140.157120,301.365570 141.163635,301.385834 
	C140.793045,302.455536 140.743652,304.025848 139.994934,304.506165 
	C137.116058,306.353210 134.013229,307.851135 130.249878,309.880463 
	C130.108582,308.299164 130.011169,307.208893 130.173035,305.906464 
z"/>
<path fill="#C18329" opacity="1.000000" stroke="none" 
	d="
M141.332642,229.034668 
	C142.183472,231.409515 141.584381,232.987198 139.117310,231.784744 
	C135.775543,230.155930 132.696030,227.989029 129.769775,225.359360 
	C134.616058,222.971191 137.420197,227.387222 141.332642,229.034668 
z"/>
<path fill="#C18329" opacity="1.000000" stroke="none" 
	d="
M165.991302,327.297028 
	C166.664597,328.217896 167.512329,329.328400 167.239899,329.939789 
	C166.029678,332.655731 164.608810,335.298676 163.015060,337.809967 
	C162.546860,338.547729 161.259445,338.765594 160.347473,339.221741 
	C160.230972,338.106232 159.636063,336.723541 160.083221,335.922791 
	C161.753937,332.930939 163.766037,330.129669 165.991302,327.297028 
z"/>
<path fill="#DADAD9" opacity="1.000000" stroke="none" 
	d="
M303.111969,298.473450 
	C302.455292,298.820160 301.983673,298.850006 301.512024,298.879883 
	C301.512024,294.583466 301.512024,290.287018 301.512024,285.990601 
	C302.107025,285.969208 302.701996,285.947845 303.296997,285.926453 
	C303.296997,290.003204 303.296997,294.079926 303.111969,298.473450 
z"/>
<path fill="#CECFCD" opacity="1.000000" stroke="none" 
	d="
M237.300903,292.900909 
	C237.403473,290.306671 237.506332,288.152435 237.609207,285.998230 
	C238.090576,286.010620 238.571960,286.023010 239.053329,286.035370 
	C239.053329,290.343475 239.053329,294.651581 239.053329,298.959717 
	C238.636688,299.031219 238.220032,299.102722 237.803391,299.174225 
	C237.636002,297.229797 237.468613,295.285370 237.300903,292.900909 
z"/>
<path fill="#281904" opacity="1.000000" stroke="none" 
	d="
M215.073212,255.907379 
	C216.284256,258.148651 217.530518,260.570892 218.230560,263.141815 
	C218.428360,263.868256 217.028595,265.029694 216.361542,265.991638 
	C215.550064,265.085266 214.261383,264.283539 214.034561,263.248993 
	C213.657150,261.527527 213.960770,259.656769 214.026428,257.405640 
	C214.350632,256.689850 214.626007,256.417297 215.073212,255.907379 
z"/>
<path fill="#CECFCD" opacity="1.000000" stroke="none" 
	d="
M198.332916,293.174622 
	C198.258759,293.099243 198.467957,292.930054 198.537140,292.936523 
	C198.606323,292.942963 198.407089,293.249969 198.332916,293.174622 
z"/>
<path fill="#281904" opacity="1.000000" stroke="none" 
	d="
M436.214264,239.050873 
	C435.495697,241.062637 434.778870,242.653305 434.062073,244.243958 
	C433.521759,244.039352 432.981415,243.834732 432.441101,243.630127 
	C432.441101,240.920609 432.441101,238.211105 432.441101,235.501587 
	C432.878143,235.250244 433.315155,234.998886 433.752197,234.747528 
	C434.573486,236.041611 435.394775,237.335693 436.214264,239.050873 
z"/>
<path fill="#281904" opacity="1.000000" stroke="none" 
	d="
M328.158875,256.729370 
	C327.284637,259.522858 324.756378,260.018951 324.556549,257.913361 
	C324.093811,253.038116 324.980469,248.034821 325.319977,243.083450 
	C325.823639,243.104828 326.327301,243.126221 326.830963,243.147614 
	C327.273773,247.525299 327.716553,251.902985 328.158875,256.729370 
z"/>
<path fill="#281904" opacity="1.000000" stroke="none" 
	d="
M189.631393,240.365448 
	C190.118912,245.828934 190.648270,250.949921 190.903763,256.084564 
	C190.952133,257.056763 189.913437,258.083069 189.376328,259.084412 
	C188.672592,258.073303 187.326675,257.032654 187.371582,256.055969 
	C187.622787,250.593140 188.208557,245.145599 188.695206,239.694199 
	C188.703583,239.600555 188.975189,239.433762 188.998978,239.453278 
	C189.208191,239.625122 189.389008,239.831543 189.631393,240.365448 
z"/>
<path fill="#010100" opacity="1.000000" stroke="none" 
	d="
M217.683990,238.448898 
	C217.197922,239.529953 216.683945,240.119965 216.169983,240.709991 
	C215.424698,239.517502 214.476929,238.392395 214.045395,237.095505 
	C213.896973,236.649414 215.037140,235.774536 215.588654,235.095551 
	C216.277802,236.049652 216.966949,237.003754 217.683990,238.448898 
z"/>
<path fill="#F2930E" opacity="1.000000" stroke="none" 
	d="
M129.093597,264.937073 
	C132.874908,264.951843 136.184525,264.838776 139.470657,265.065674 
	C140.301727,265.123047 141.057877,266.265259 141.848450,266.908936 
	C141.049576,267.536011 140.264099,268.684601 139.449646,268.705505 
	C134.188644,268.840729 128.918167,268.812653 123.659248,268.614166 
	C122.827934,268.582794 122.039429,267.417328 121.231133,266.776245 
	C122.041328,266.172974 122.785645,265.207794 123.676140,265.045654 
	C125.275520,264.754547 126.962692,264.945679 129.093597,264.937073 
z"/>
<path fill="#CECFCD" opacity="1.000000" stroke="none" 
	d="
M193.500427,287.923340 
	C195.187378,288.204468 196.790161,288.809753 198.392960,289.415009 
	C198.043732,290.094086 197.694489,290.773132 197.345261,291.452179 
	C196.035599,290.383972 194.725952,289.315735 193.500427,287.923340 
z"/>
</svg>